G04*
G04 #@! TF.GenerationSoftware,Altium Limited,Altium Designer,25.0.2 (28)*
G04*
G04 Layer_Color=16711935*
%FSLAX44Y44*%
%MOMM*%
G71*
G04*
G04 #@! TF.SameCoordinates,4808E630-E1AA-40A3-BC65-94F3982335E7*
G04*
G04*
G04 #@! TF.FilePolarity,Positive*
G04*
G01*
G75*
%ADD10C,0.2000*%
%ADD12C,0.1000*%
D10*
X817980Y469572D02*
X830480D01*
Y489672D01*
X817980D02*
X830480D01*
X817980Y469572D02*
Y489672D01*
X849570Y521520D02*
Y580520D01*
X894570D01*
Y521520D02*
Y580520D01*
X849570Y521520D02*
X894570D01*
X624410Y504810D02*
Y518810D01*
X602410D02*
X624410D01*
X602410Y504810D02*
Y518810D01*
Y504810D02*
X624410D01*
X853380Y406270D02*
Y465270D01*
X898380D01*
Y406270D02*
Y465270D01*
X853380Y406270D02*
X898380D01*
X720812Y556360D02*
Y568860D01*
X700712D02*
X720812D01*
X700712Y556360D02*
Y568860D01*
Y556360D02*
X720812D01*
D12*
X648630Y516020D02*
X669630D01*
X648630Y502520D02*
X669630D01*
X648630D02*
Y516020D01*
X669630Y502520D02*
Y516020D01*
X752770Y557130D02*
X773770D01*
X752770Y570630D02*
X773770D01*
Y557130D02*
Y570630D01*
X752770Y557130D02*
Y570630D01*
X765430Y489590D02*
X781430D01*
X765430D02*
Y518790D01*
X781430D01*
Y489590D02*
Y518790D01*
X771930Y489590D02*
X781430Y499090D01*
X713000Y431420D02*
Y447420D01*
X684000Y431420D02*
X713000D01*
X684000D02*
Y447420D01*
X713000D01*
X703500D02*
X713000Y437920D01*
X656990Y428920D02*
Y449920D01*
X643490Y428920D02*
Y449920D01*
X656990D01*
X643490Y428920D02*
X656990D01*
X747580Y463920D02*
X786580D01*
Y414920D02*
Y463920D01*
X747580Y414920D02*
X786580D01*
X747580D02*
Y463920D01*
Y451220D02*
X760280Y463920D01*
X626020Y404347D02*
Y479253D01*
X579067Y404347D02*
X626020D01*
X579020Y404300D02*
Y479253D01*
X626020D01*
X602410Y569860D02*
X624410D01*
X602410Y555360D02*
X624410D01*
X602410D02*
Y569860D01*
X624410Y555360D02*
Y569860D01*
X646860Y555360D02*
Y569860D01*
X668860Y555360D02*
Y569860D01*
X646860D02*
X668860D01*
X646860Y555360D02*
X668860D01*
M02*
