G04*
G04 #@! TF.GenerationSoftware,Altium Limited,Altium Designer,25.0.2 (28)*
G04*
G04 Layer_Color=8388736*
%FSLAX44Y44*%
%MOMM*%
G71*
G04*
G04 #@! TF.SameCoordinates,4808E630-E1AA-40A3-BC65-94F3982335E7*
G04*
G04*
G04 #@! TF.FilePolarity,Negative*
G04*
G01*
G75*
%ADD16R,1.4562X1.3046*%
%ADD17R,0.9500X1.4500*%
%ADD29R,1.3046X1.4562*%
%ADD30C,0.7032*%
%ADD31R,1.3032X1.5032*%
%ADD32R,1.4032X1.6532*%
%ADD33R,1.4032X0.8032*%
%ADD34R,0.8032X1.3532*%
%ADD35R,1.6532X1.4032*%
%ADD36R,1.7282X0.9032*%
%ADD37R,2.7162X3.6052*%
%ADD38R,1.5532X0.6032*%
%ADD39R,2.1032X1.7032*%
%ADD40R,1.5032X1.6532*%
%ADD41R,1.0532X1.5532*%
%ADD42C,1.5032*%
%ADD43C,1.6532*%
%ADD44C,1.4732*%
G36*
X614153Y419809D02*
X614283Y419783D01*
X614410Y419741D01*
X614529Y419682D01*
X614640Y419608D01*
X614740Y419520D01*
X614828Y419420D01*
X614902Y419309D01*
X614961Y419190D01*
X615004Y419063D01*
X615029Y418933D01*
X615038Y418800D01*
Y405800D01*
X615029Y405667D01*
X615004Y405536D01*
X614961Y405410D01*
X614902Y405291D01*
X614828Y405180D01*
X614740Y405080D01*
X614640Y404992D01*
X614529Y404918D01*
X614410Y404859D01*
X614283Y404817D01*
X614153Y404790D01*
X614020Y404782D01*
X610038D01*
Y400800D01*
X610030Y400667D01*
X610004Y400537D01*
X609961Y400410D01*
X609932Y400352D01*
X609902Y400291D01*
X609828Y400180D01*
X609740Y400080D01*
X609740D01*
Y400080D01*
X609640Y399992D01*
X609529Y399918D01*
X609469Y399889D01*
X609410Y399860D01*
X609284Y399817D01*
X609153Y399791D01*
X609020Y399782D01*
X600020Y399782D01*
D01*
X600020D01*
X599887Y399790D01*
X599757Y399816D01*
X599630Y399859D01*
X599571Y399888D01*
X599511Y399918D01*
X599400Y399992D01*
X599300Y400080D01*
Y400080D01*
X599300D01*
X599212Y400180D01*
X599138Y400291D01*
X599108Y400351D01*
X599079Y400410D01*
X599036Y400536D01*
X599011Y400667D01*
X599002Y400800D01*
D01*
Y400800D01*
Y404782D01*
X595020D01*
X594887Y404790D01*
X594757Y404817D01*
X594630Y404859D01*
X594511Y404918D01*
X594400Y404992D01*
X594300Y405080D01*
X594212Y405180D01*
X594138Y405291D01*
X594079Y405410D01*
X594036Y405536D01*
X594011Y405667D01*
X594002Y405800D01*
Y418800D01*
X594011Y418933D01*
X594036Y419063D01*
X594079Y419190D01*
X594138Y419309D01*
X594212Y419420D01*
X594300Y419520D01*
X594400Y419608D01*
X594511Y419682D01*
X594630Y419741D01*
X594757Y419783D01*
X594887Y419809D01*
X595020Y419818D01*
X614020D01*
X614153Y419809D01*
D02*
G37*
G36*
X609153Y483809D02*
X609283Y483783D01*
X609410Y483741D01*
X609468Y483712D01*
X609529Y483682D01*
X609640Y483608D01*
X609740Y483520D01*
Y483520D01*
X609740D01*
X609828Y483420D01*
X609902Y483309D01*
X609932Y483249D01*
X609961Y483190D01*
X610004Y483064D01*
X610029Y482933D01*
X610038Y482800D01*
D01*
Y482800D01*
Y478818D01*
X614020D01*
X614153Y478809D01*
X614283Y478783D01*
X614410Y478741D01*
X614529Y478682D01*
X614640Y478608D01*
X614740Y478520D01*
X614828Y478420D01*
X614902Y478309D01*
X614961Y478190D01*
X615004Y478064D01*
X615029Y477933D01*
X615038Y477800D01*
Y464800D01*
X615029Y464667D01*
X615004Y464536D01*
X614961Y464410D01*
X614902Y464291D01*
X614828Y464180D01*
X614740Y464080D01*
X614640Y463992D01*
X614529Y463918D01*
X614410Y463859D01*
X614283Y463816D01*
X614153Y463791D01*
X614020Y463782D01*
X595020D01*
X594887Y463791D01*
X594757Y463816D01*
X594630Y463859D01*
X594511Y463918D01*
X594400Y463992D01*
X594300Y464080D01*
X594212Y464180D01*
X594138Y464291D01*
X594079Y464410D01*
X594036Y464536D01*
X594011Y464667D01*
X594002Y464800D01*
Y477800D01*
X594011Y477933D01*
X594036Y478064D01*
X594079Y478190D01*
X594138Y478309D01*
X594212Y478420D01*
X594300Y478520D01*
X594400Y478608D01*
X594511Y478682D01*
X594630Y478741D01*
X594757Y478783D01*
X594887Y478809D01*
X595020Y478818D01*
X599002D01*
Y482800D01*
X599010Y482933D01*
X599036Y483063D01*
X599079Y483189D01*
X599108Y483248D01*
X599138Y483309D01*
X599212Y483420D01*
X599300Y483520D01*
X599300D01*
Y483520D01*
X599400Y483607D01*
X599511Y483681D01*
X599571Y483711D01*
X599630Y483740D01*
X599756Y483783D01*
X599887Y483809D01*
X600020Y483818D01*
X609020Y483818D01*
D01*
X609020D01*
X609153Y483809D01*
D02*
G37*
D16*
X824230Y487680D02*
D03*
Y471564D02*
D03*
D17*
X603660Y511810D02*
D03*
X623160D02*
D03*
D29*
X702704Y562610D02*
D03*
X718820D02*
D03*
D30*
X611520Y405800D02*
G03*
X611520Y405800I-2500J0D01*
G01*
X602520D02*
G03*
X602520Y405800I-2500J0D01*
G01*
X611520Y477800D02*
G03*
X611520Y477800I-2500J0D01*
G01*
X602520D02*
G03*
X602520Y477800I-2500J0D01*
G01*
D31*
X728050Y509270D02*
D03*
X707050D02*
D03*
X832190Y565150D02*
D03*
X811190D02*
D03*
D32*
X649130Y509270D02*
D03*
X669130D02*
D03*
X773270Y563880D02*
D03*
X753270D02*
D03*
D33*
X785930Y494690D02*
D03*
Y504190D02*
D03*
Y513690D02*
D03*
X760930D02*
D03*
Y504190D02*
D03*
Y494690D02*
D03*
D34*
X708000Y447420D02*
D03*
X698500D02*
D03*
X689000D02*
D03*
Y431420D02*
D03*
X698500D02*
D03*
X708000D02*
D03*
D35*
X650240Y449420D02*
D03*
Y429420D02*
D03*
D36*
X739960Y458470D02*
D03*
Y445770D02*
D03*
Y433070D02*
D03*
Y420370D02*
D03*
X794200D02*
D03*
Y433070D02*
D03*
Y445770D02*
D03*
Y458470D02*
D03*
D37*
X767080Y439420D02*
D03*
D38*
X577520Y428800D02*
D03*
Y435300D02*
D03*
Y441800D02*
D03*
Y448300D02*
D03*
Y454800D02*
D03*
D39*
X604520Y431800D02*
D03*
Y451800D02*
D03*
D40*
X605410Y562610D02*
D03*
X621410D02*
D03*
D41*
X649610D02*
D03*
X666110D02*
D03*
D42*
X877570Y561020D02*
D03*
Y541020D02*
D03*
X881380Y445770D02*
D03*
Y425770D02*
D03*
D43*
X577520Y466800D02*
D03*
Y416800D02*
D03*
D44*
X808228Y482346D02*
D03*
X708000Y484734D02*
D03*
X751586Y528320D02*
D03*
X649130Y483421D02*
D03*
X809752Y433070D02*
D03*
X672338Y440690D02*
D03*
X774700Y525780D02*
D03*
M02*
