G04*
G04 #@! TF.GenerationSoftware,Altium Limited,Altium Designer,25.0.2 (28)*
G04*
G04 Layer_Physical_Order=2*
G04 Layer_Color=16711680*
%FSLAX44Y44*%
%MOMM*%
G71*
G04*
G04 #@! TF.SameCoordinates,4808E630-E1AA-40A3-BC65-94F3982335E7*
G04*
G04*
G04 #@! TF.FilePolarity,Positive*
G04*
G01*
G75*
%ADD13C,0.2540*%
%ADD45C,1.3000*%
%ADD46C,1.4500*%
%ADD47C,1.2700*%
D13*
X762508Y539242D02*
X877570D01*
Y541020D01*
X751586Y528320D02*
X762508Y539242D01*
X577520Y416800D02*
X822960D01*
X832492Y426332D01*
Y458082D01*
X808228Y482346D02*
X832492Y458082D01*
X824804Y482346D02*
X881380Y425770D01*
X808228Y482346D02*
X824804D01*
X708000Y484734D02*
X751586Y528320D01*
X649130Y483421D02*
X699481Y433070D01*
X809752D01*
X672338Y440690D02*
X691642Y421386D01*
X814070D01*
X819404Y426720D01*
Y452120D01*
X774700Y496824D02*
X819404Y452120D01*
X774700Y496824D02*
Y525780D01*
D45*
X877570Y561020D02*
D03*
Y541020D02*
D03*
X881380Y445770D02*
D03*
Y425770D02*
D03*
D46*
X577520Y466800D02*
D03*
Y416800D02*
D03*
D47*
X808228Y482346D02*
D03*
X708000Y484734D02*
D03*
X751586Y528320D02*
D03*
X649130Y483421D02*
D03*
X809752Y433070D02*
D03*
X672338Y440690D02*
D03*
X774700Y525780D02*
D03*
M02*
